<svg width="35" height="34" viewBox="0 0 35 34" fill="none" xmlns="http://www.w3.org/2000/svg">
<g id="Group">
<path id="Vector" d="M30.2516 4.10606C27.1864 1.5134 22.8039 -0.00122972 17.4449 7.49129e-07C12.3598 7.49129e-07 8.01785 1.43424 4.91277 3.99293C3.36088 5.27029 2.12659 6.82929 1.28563 8.60225C0.443586 10.3747 -0.00129599 12.3567 2.8358e-06 14.4608C-0.00129599 17.0048 0.531017 19.3544 1.6072 21.4046C2.6319 23.364 4.15679 25.0303 6.09833 26.3335C5.63929 28.2659 4.99385 31.0277 4.99385 31.029C4.96432 31.1531 4.94887 31.2823 4.95016 31.4134C4.94893 31.9323 5.19065 32.4318 5.61099 32.7538L5.61359 32.7557V32.7564C5.91451 32.9853 6.27702 33.1023 6.63966 33.1023C6.91228 33.1023 7.18865 33.0361 7.4381 32.9018L7.46257 32.8889L7.48697 32.8741C7.48827 32.8735 7.83417 32.6684 8.36648 32.3534C9.16362 31.8815 10.3786 31.1635 11.4625 30.5251C12.0039 30.2062 12.513 29.9073 12.9193 29.6701C13.3242 29.4335 13.6354 29.2529 13.7512 29.1892L13.7563 29.186L13.764 29.1816C15.2747 28.3252 16.4782 28.1812 17.4451 28.1761C21.4579 28.1703 25.731 27.3924 29.1434 25.2626C30.8456 24.1961 32.3269 22.7735 33.3684 20.9522C34.4124 19.1322 35.0012 16.929 35 14.3787C35.0076 10.3677 33.3194 6.69236 30.2516 4.10606ZM31.0835 19.6437C30.4805 20.6948 29.6911 21.5794 28.7435 22.329C27.3227 23.4521 25.5394 24.2627 23.5838 24.7854C21.6288 25.3093 19.506 25.5434 17.445 25.5427C16.1798 25.5376 14.412 25.7761 12.4717 26.8883V26.8876C12.257 27.0071 11.7788 27.2856 11.1487 27.6545C10.2449 28.1849 9.05554 28.8863 8.06297 29.4738C8.30469 28.442 8.58633 27.2469 8.79585 26.3694V26.3681C8.83057 26.2216 8.85628 26.0627 8.85628 25.8821C8.85888 25.6275 8.79325 25.317 8.64676 25.0586C8.53738 24.8651 8.39725 24.7127 8.27516 24.6086C8.08744 24.4524 7.94731 24.3849 7.86883 24.3418L7.78912 24.3013L7.7801 24.2962C6.06107 23.1885 4.79588 21.8128 3.93968 20.1818C3.08334 18.5482 2.63334 16.6421 2.63334 14.4608C2.63334 12.7244 2.99461 11.1436 3.66447 9.73127C4.66989 7.61624 6.37607 5.8618 8.70842 4.61144C11.0382 3.36361 13.9993 2.63333 17.4451 2.63333C22.318 2.63463 26.0537 4.00264 28.5507 6.11637C31.0438 8.23721 32.3578 11.0929 32.3668 14.3785C32.3641 16.5322 31.8832 18.2416 31.0835 19.6437Z" fill="white"/>
<path id="Vector_2" d="M10.2323 8.52966C9.11958 8.52966 8.21765 9.43228 8.21765 10.5451C8.21765 11.6578 9.11958 12.5598 10.2323 12.5598C11.3458 12.5598 12.2477 11.6579 12.2477 10.5451C12.2478 9.43228 11.3458 8.52966 10.2323 8.52966Z" fill="white"/>
<path id="Vector_3" d="M18.0914 8.52966C16.9785 8.52966 16.0765 9.43228 16.0765 10.5451C16.0765 11.6578 16.9785 12.5598 18.0914 12.5598C19.2048 12.5598 20.1067 11.6579 20.1067 10.5451C20.1067 9.43228 19.2048 8.52966 18.0914 8.52966Z" fill="white"/>
<path id="Vector_4" d="M25.9512 8.52966C24.8384 8.52966 23.9358 9.43228 23.9358 10.5451C23.9358 11.6578 24.8384 12.5598 25.9512 12.5598C27.0646 12.5598 27.9667 11.6579 27.9667 10.5451C27.9667 9.43228 27.0646 8.52966 25.9512 8.52966Z" fill="white"/>
</g>
</svg>
