<svg width="48" height="48" viewBox="0 0 48 48" fill="none" xmlns="http://www.w3.org/2000/svg">
<g id="text-to-speech 1">
<path id="Vector" d="M16 14C16.5253 14 17.0454 14.1035 17.5307 14.3045C18.016 14.5055 18.457 14.8001 18.8284 15.1716C19.1999 15.543 19.4945 15.984 19.6955 16.4693C19.8965 16.9546 20 17.4747 20 18V28C20 28.5253 19.8965 29.0454 19.6955 29.5307C19.4945 30.016 19.1999 30.457 18.8284 30.8284C18.457 31.1999 18.016 31.4945 17.5307 31.6955C17.0454 31.8965 16.5253 32 16 32C15.4747 32 14.9546 31.8965 14.4693 31.6955C13.984 31.4945 13.543 31.1999 13.1716 30.8284C12.8001 30.457 12.5055 30.016 12.3045 29.5307C12.1035 29.0454 12 28.5253 12 28V18C12 16.9391 12.4214 15.9217 13.1716 15.1716C13.9217 14.4214 14.9391 14 16 14ZM28 28C28 33.94 23.68 38.88 18 39.84V44H14V39.84C8.32 38.88 4 33.94 4 28H8C8 30.1217 8.84285 32.1566 10.3431 33.6569C11.8434 35.1571 13.8783 36 16 36C18.1217 36 20.1566 35.1571 21.6569 33.6569C23.1571 32.1566 24 30.1217 24 28H28ZM42.82 18.82L34.34 27.32L36.36 20H28C27.4747 20 26.9546 19.8965 26.4693 19.6955C25.984 19.4945 25.543 19.1999 25.1716 18.8284C24.8001 18.457 24.5055 18.016 24.3045 17.5307C24.1035 17.0454 24 16.5253 24 16V8C24 7.47471 24.1035 6.95457 24.3045 6.46927C24.5055 5.98396 24.8001 5.54301 25.1716 5.17157C25.543 4.80014 25.984 4.5055 26.4693 4.30448C26.9546 4.10346 27.4747 4 28 4H40C40.5253 4 41.0454 4.10346 41.5307 4.30448C42.016 4.5055 42.457 4.80014 42.8284 5.17157C43.1999 5.54301 43.4945 5.98396 43.6955 6.46927C43.8965 6.95457 44 7.47471 44 8V16C44 17.1 43.56 18.1 42.82 18.82Z" fill="white"/>
</g>
</svg>
