<svg width="16" height="16" viewBox="0 0 16 16" fill="none" xmlns="http://www.w3.org/2000/svg">
<g id="vuesax/bold/ranking">
<g id="ranking">
<path id="Vector" d="M8.86657 5.40657L9.74657 7.16657C9.86657 7.40657 10.1866 7.64657 10.4532 7.68657L12.0466 7.95323C13.0666 8.12657 13.3066 8.8599 12.5732 9.59323L11.3332 10.8399C11.1266 11.0466 11.0066 11.4532 11.0732 11.7466L11.4266 13.2866C11.7066 14.4999 11.0599 14.9732 9.98657 14.3399L8.49323 13.4532C8.2199 13.2932 7.7799 13.2932 7.50657 13.4532L6.00657 14.3332C4.93323 14.9666 4.28657 14.4932 4.56657 13.2799L4.9199 11.7399C4.98657 11.4532 4.86657 11.0466 4.6599 10.8332L3.42657 9.5999C2.69323 8.86657 2.93323 8.12657 3.95323 7.9599L5.54657 7.69323C5.81323 7.64657 6.13323 7.41323 6.25323 7.17323L7.13323 5.41323C7.60657 4.45323 8.39323 4.45323 8.86657 5.40657Z" fill="#2AC769"/>
<path id="Vector_2" d="M4 6.49999C3.72667 6.49999 3.5 6.27333 3.5 5.99999V1.33333C3.5 1.05999 3.72667 0.833328 4 0.833328C4.27333 0.833328 4.5 1.05999 4.5 1.33333V5.99999C4.5 6.27333 4.27333 6.49999 4 6.49999Z" fill="#2AC769"/>
<path id="Vector_3" d="M12 6.49999C11.7267 6.49999 11.5 6.27333 11.5 5.99999V1.33333C11.5 1.05999 11.7267 0.833328 12 0.833328C12.2733 0.833328 12.5 1.05999 12.5 1.33333V5.99999C12.5 6.27333 12.2733 6.49999 12 6.49999Z" fill="#2AC769"/>
<path id="Vector_4" d="M8 3.16666C7.72667 3.16666 7.5 2.94 7.5 2.66666V1.33333C7.5 1.05999 7.72667 0.833328 8 0.833328C8.27333 0.833328 8.5 1.05999 8.5 1.33333V2.66666C8.5 2.94 8.27333 3.16666 8 3.16666Z" fill="#2AC769"/>
</g>
</g>
</svg>
