<svg width="15" height="14" viewBox="0 0 15 14" fill="none" xmlns="http://www.w3.org/2000/svg">
<path d="M8.63723 1.09614L9.79223 3.40614C9.94973 3.72114 10.3697 4.03614 10.7197 4.08864L12.811 4.43865C14.1497 4.66615 14.4647 5.62864 13.5022 6.59115L11.8747 8.22739C11.6035 8.49864 11.446 9.03239 11.5335 9.41739L11.9972 11.4386C12.3647 13.0311 11.516 13.6524 10.1072 12.8211L8.14723 11.6574C7.78848 11.4474 7.21098 11.4474 6.85223 11.6574L4.88348 12.8124C3.47473 13.6436 2.62598 13.0224 2.99348 11.4299L3.45723 9.40864C3.54473 9.03239 3.38723 8.49864 3.11598 8.21864L1.49723 6.59989C0.534732 5.63739 0.849733 4.66614 2.18848 4.44739L4.27973 4.09739C4.62973 4.03614 5.04973 3.72989 5.20723 3.41489L6.36223 1.10489C6.98348 -0.155105 8.01598 -0.155105 8.63723 1.09614Z" fill="#FFBC1F"/>
</svg>
